<svg xmlns="http://www.w3.org/2000/svg" width="108" height="108" viewBox="0 0 108 108">
  <!--
    Adaptive Icon Foreground
    Safe zone: 中央の円形領域 (中心54,54 半径36)
    全コンテンツをこの範囲内に配置
  -->

  <!-- 左の人物（女性・やや小柄） -->
  <circle cx="43" cy="40" r="6.5" fill="#FFFFFF"/>
  <path d="M43 47 C38 50 35 56 35 61 L35 70 C35 71.5 36 72.5 37.5 72.5 L48.5 72.5 C50 72.5 51 71.5 51 70 L51 61 C51 56 48 50 43 47 Z" fill="#FFFFFF"/>
  <!-- スカート -->
  <path d="M36.5 67 L35 76 C35 77 36 78 37 78 L49 78 C50 78 51 77 51 76 L49.5 67" fill="#FFFFFF"/>

  <!-- 右の人物（男性・やや大柄） -->
  <circle cx="62" cy="38" r="7" fill="#FFFFFF"/>
  <path d="M62 45.5 C57 48.5 54 54.5 54 60 L54 76 C54 77.5 55 78.5 56.5 78.5 L67.5 78.5 C69 78.5 70 77.5 70 76 L70 60 C70 54.5 67 48.5 62 45.5 Z" fill="#FFFFFF"/>

  <!-- 二人の間のハート（絆のシンボル） -->
  <path d="M52.5 52 C52.5 50 50.5 48 49 48 C47.5 48 46 49.5 46 52 C46 55.5 52.5 59 52.5 59 C52.5 59 59 55.5 59 52 C59 49.5 57.5 48 56 48 C54.5 48 52.5 50 52.5 52 Z" fill="#FFFFFF" opacity="0.5"/>

  <!-- チェックマークバッジ（セーフゾーン内に移動） -->
  <circle cx="68" cy="35" r="8" fill="#FFFFFF"/>
  <polyline points="63.5,35 66.5,38 73,32" fill="none" stroke="#FF6B9D" stroke-width="2.5" stroke-linecap="round" stroke-linejoin="round"/>
</svg>
